PathFileType	4	(X/Y/Z)	OpenSim_Sub04_CSBaseline_Gyro.trc
DataRate	CameraRate	NumFrames	NumMarkers	Units	OrigDataRate	OrigDataStartFrame	OrigNumFrames
100	100	16	8	m	100	4042	8083
Frame#	Time	torso_imu_offset_imu	pelvis_imu_offset_imu	tibia_r_imu_offset_imu	femur_r_imu_offset_imu	tibia_l_imu_offset_imu	femur_l_imu_offset_imu	toes_r_imu_offset_imu	toes_l_imu_offset_imu
				X1	Y1	Z1	X2	Y2	Z2	X3	Y3	Z3	X4	Y4	Z4	X5	Y5	Z5	X6	Y6	Z6	X7	Y7	Z7	X8		Y8	Z8	

4042	40.41000000	-0.56542371	0.11473914	0.49851355	0.11841903	0.22207333	-0.08376157	-0.11130286	-0.24302457	-0.59972425	-0.01823015	-0.28921193	-0.81903746	0.52914171	0.03480835	-0.53793756	0.01523521	0.90832732	-1.37658042	-0.19026160	-0.16812138	0.09835517	-0.59024977	1.56039664	-0.13913106
4043	40.42000000	-0.56176880	0.11608172	0.52566146	0.16984739	0.22497724	-0.10735940	-0.17466737	-0.23107378	-0.56785060	-0.15463515	-0.31343934	-0.82067883	0.27683703	0.03170162	-0.86536001	0.02020093	0.79133547	-1.21103649	-0.18362956	-0.15529305	0.05175349	-0.82026295	1.80309887	-0.31806442
4044	40.43000000	-0.56559212	0.13031222	0.55521355	0.23066715	0.22430166	-0.11932019	-0.20716213	-0.21187719	-0.54205931	-0.26737816	-0.31231591	-0.83364527	0.15742382	0.03488598	-1.19074793	-0.05810598	0.62112256	-1.08855009	-0.13645704	-0.13729297	0.01880895	-0.92645720	2.09440307	-0.47516259
4045	40.44000000	-0.56093156	0.14800601	0.57600978	0.28269827	0.22098742	-0.12927572	-0.25134168	-0.19919819	-0.52812219	-0.35445716	-0.28354552	-0.83081766	0.03654037	0.11938637	-1.54058818	-0.07434895	0.59046110	-1.02887881	-0.13925789	-0.14120123	0.00070860	-0.86643492	2.48856865	-0.62119148
4046	40.45000000	-0.55235883	0.17676145	0.59636521	0.30066908	0.23224095	-0.16382554	-0.25522911	-0.16862487	-0.53309958	-0.40940839	-0.22703817	-0.81264715	-0.02335613	0.26057405	-1.90161785	-0.10509950	0.56924478	-0.99025701	-0.13246032	-0.13344351	-0.02591165	-0.69147542	2.92466145	-0.72077680
4047	40.46000000	-0.54335935	0.19308704	0.59178724	0.29211539	0.24861036	-0.19793861	-0.19829779	-0.14991366	-0.54981367	-0.44053205	-0.17160775	-0.79552012	-0.00461080	0.39032433	-2.25423607	-0.19912463	0.58489007	-0.98646669	-0.10713166	-0.10314701	-0.05333987	-0.54028845	3.34554413	-0.76614697
4048	40.47000000	-0.55154554	0.21078555	0.59750462	0.27503926	0.25293312	-0.22883542	-0.14156613	-0.15367635	-0.56090212	-0.43922109	-0.13116214	-0.75551760	0.11622877	0.42880147	-2.59181357	-0.24790172	0.62953651	-0.98431799	-0.09498857	-0.09016535	-0.07912161	-0.44702732	3.67257811	-0.76103800
4049	40.48000000	-0.55275518	0.24065787	0.59214334	0.26350212	0.24824574	-0.25417601	-0.07916489	-0.15811459	-0.54435362	-0.43509271	-0.13490914	-0.73017652	0.27576999	0.39222622	-2.90797154	-0.31291578	0.65917215	-0.95825193	-0.06477008	-0.07285416	-0.10884272	-0.41087438	3.88048846	-0.73835134
4050	40.49000000	-0.53855664	0.26092445	0.57828450	0.25082049	0.24460807	-0.26515527	-0.06651384	-0.16828112	-0.53648047	-0.41066333	-0.15144396	-0.71444178	0.34242722	0.37796405	-3.19034998	-0.31458206	0.67007071	-0.88898330	-0.00586708	-0.08992632	-0.13696803	-0.38733791	3.99149966	-0.74169359
4051	40.50000000	-0.52544575	0.27532756	0.54669926	0.22726863	0.23862872	-0.27517228	-0.11760232	-0.17334386	-0.56220079	-0.34436274	-0.17663587	-0.69222224	0.36584476	0.41332431	-3.42522659	-0.30920876	0.63383623	-0.83531353	-0.00707953	-0.08559742	-0.15519680	-0.38211187	4.03681850	-0.80361900
4052	40.51000000	-0.49790995	0.27172155	0.50838507	0.21011659	0.24594906	-0.28056957	-0.19474983	-0.16557075	-0.60346109	-0.26219930	-0.19453908	-0.67390808	0.31564943	0.52780930	-3.62519322	-0.29249720	0.53748445	-0.77479446	0.02619040	-0.08390432	-0.17728079	-0.37018502	4.02283522	-0.92901706
4053	40.52000000	-0.48354386	0.25787994	0.46405350	0.18782105	0.24719290	-0.27706548	-0.25130108	-0.14888110	-0.63939341	-0.17931332	-0.20607033	-0.66101021	0.20937600	0.63623388	-3.77238746	-0.25993936	0.42506876	-0.69669716	0.05168001	-0.09613770	-0.17554141	-0.30171914	3.99002795	-1.10054065
4054	40.53000000	-0.47827876	0.25482488	0.41653739	0.16127625	0.25383384	-0.27506041	-0.27568924	-0.13276997	-0.65897706	-0.14010801	-0.19836015	-0.65083463	0.21192255	0.65478190	-3.87920402	-0.20383568	0.30437373	-0.62087620	0.03198201	-0.09849290	-0.17768618	-0.26567928	3.92334187	-1.26686206
4055	40.54000000	-0.45673185	0.24549800	0.36995774	0.15860054	0.25563130	-0.25611663	-0.26281265	-0.12266121	-0.68127798	-0.11744996	-0.17792747	-0.62772530	0.33625174	0.65923946	-4.00601256	-0.17602440	0.17614973	-0.54243106	0.06165565	-0.11656079	-0.18101449	-0.29088267	3.77168367	-1.38979682
4056	40.55000000	-0.44092345	0.23394142	0.32140578	0.12084941	0.24359367	-0.24728249	-0.23800500	-0.12639495	-0.72051309	-0.08807247	-0.13738554	-0.60199734	0.41020226	0.68823875	-4.15123303	-0.13291698	0.09802382	-0.44607533	0.06953118	-0.12804674	-0.18366770	-0.31326148	3.52682362	-1.47660707
4057	40.56000000	-0.40875068	0.22710441	0.28054355	0.09111079	0.22031879	-0.22084952	-0.18325567	-0.11956052	-0.76343672	-0.06717673	-0.08326317	-0.57731342	0.26164493	0.76294973	-4.29241971	-0.08675388	0.02394707	-0.37303120	0.07242450	-0.13275705	-0.18635870	-0.26100311	3.34754245	-1.59337536
